<?xml version="1.0" encoding="utf-8"?>
<!-- Generator: Adobe Illustrator 22.1.0, SVG Export Plug-In . SVG Version: 6.00 Build 0)  -->
<svg version="1.1" id="Layer_1" xmlns="http://www.w3.org/2000/svg" xmlns:xlink="http://www.w3.org/1999/xlink" x="0px" y="0px"
	 viewBox="0 0 50 50" style="enable-background:new 0 0 50 50;" xml:space="preserve">
<style type="text/css">
	.st0{fill:#1E1E1E;}
</style>
<path class="st0" d="M16.6,14.1h-4.7v4.4h4.7V14.1z M22.2,19.3h-4.7v4.3h4.7V19.3z M16.6,19.3h-4.7v4.3h4.7V19.3z M10.9,19.3H6.2
	v4.3h4.7L10.9,19.3L10.9,19.3z M47.8,21.4c-1-0.7-3.5-0.9-5.3-0.6c-0.2-1.7-1.2-3.2-3-4.6l-1-0.7l-0.7,1c-1.4,2-1.7,5.3-0.2,7.5
	c-0.6,0.3-1.8,0.8-3.5,0.8H2.9C2.2,28.4,3.2,33.1,6,36.5c2.6,3.1,6.7,4.7,11.9,4.7c11.3,0,19.7-5.2,23.6-14.7c1.5,0,4.8,0,6.6-3.2
	c0.1-0.2,0.5-0.9,0.6-1.3L47.8,21.4z M27.9,14.1h-4.7v4.4h4.7V14.1z M22.2,14.1h-4.7v4.4h4.7V14.1z M33.5,19.3h-4.7v4.3h4.7V19.3z
	 M27.9,8.9h-4.7v4.4h4.7V8.9z M27.9,23.7h-4.7v-4.3h4.7V23.7z"/>
</svg>
