<?xml version="1.0" encoding="utf-8"?>
<!-- Generator: Adobe Illustrator 22.1.0, SVG Export Plug-In . SVG Version: 6.00 Build 0)  -->
<svg version="1.1" id="Layer_1" xmlns="http://www.w3.org/2000/svg" xmlns:xlink="http://www.w3.org/1999/xlink" x="0px" y="0px"
	 viewBox="0 0 50 50" style="enable-background:new 0 0 50 50;" xml:space="preserve">
<style type="text/css">
	.st0{fill:#1E1E1E;}
	.st1{stroke:#FFFFFF;stroke-miterlimit:10;}
</style>
<path class="st0" d="M9.4,24c-0.1-1.2-1-1.8-2.2-1.6c-0.8,0.1-1.5,1-1.5,1.7c0,0.2,0.1,0.2,0.2,0.2c0.6,0,1,0,1.5,0c0.5,0,1,0,1.5,0
	C9.4,24.4,9.4,24.3,9.4,24 M21.9,26.2c0.5-0.8,0.5-1.7,0.1-2.7c-0.2-0.8-0.9-1.3-1.6-1.3c-0.9,0-1.4,0.3-1.7,1
	c-0.5,0.9-0.5,2,0.1,2.9c0.3,0.7,0.9,0.9,1.6,0.9C21,27.1,21.5,26.8,21.9,26.2 M32.7,24.1c-0.1-1.5-1.4-2.1-2.5-1.6
	c-0.7,0.2-1,0.9-1.2,1.6c0,0.2,0,0.3,0.2,0.3c0.5,0,1,0,1.5,0c0.6,0,1,0,1.6,0C32.6,24.4,32.7,24.3,32.7,24.1 M44.5,27.4
	c-0.7,0.5-2.7,0.7-3.5-0.2c-0.2-0.3-0.5-0.6-0.5-1c0-0.1-0.1-0.3,0.1-0.3c0.2,0,0.5-0.1,0.6,0.1l0,0c0.5,1,1.3,1.5,2.3,1
	c0.2-0.1,0.5-0.2,0.6-0.5c0.3-0.5,0.1-1-0.3-1.3c-0.5-0.2-0.8-0.2-1.3-0.3c-0.3-0.1-0.6-0.1-0.9-0.2c-0.6-0.2-0.9-0.6-1-1.3
	c0-0.7,0.2-1.2,0.8-1.5c0.3-0.2,0.8-0.3,1.3-0.2c0.5,0,0.8,0,1.3,0.2c0.6,0.2,0.9,0.8,1,1.4c0,0.2,0,0.2-0.2,0.2
	c-0.3,0-0.5,0-0.6-0.3c0-0.3-0.3-0.6-0.6-0.7c-0.5-0.2-0.9-0.2-1.4-0.1c-0.3,0.1-0.7,0.5-0.7,0.8c0,0.3,0.1,0.6,0.6,0.8
	c0.3,0.2,0.8,0.2,1.2,0.3c0.5,0.1,0.9,0.2,1.3,0.5C45.4,25.4,45.2,26.9,44.5,27.4 M35.6,23.1c-0.1,0.3,0,0.6,0.3,0.8
	c0.5,0.2,0.9,0.3,1.3,0.5c0.5,0.1,0.9,0.2,1.4,0.5c0.8,0.6,0.9,1.6,0.2,2.3c-0.7,0.7-2.8,0.9-3.7-0.1c-0.2-0.3-0.3-0.7-0.5-1
	c0-0.1,0-0.2,0.2-0.2c0.3,0,0.5,0,0.6,0.3c0.1,0.6,0.5,0.8,1,0.9c0.5,0.1,0.9,0.1,1.3-0.1c0.5-0.1,0.7-0.5,0.7-0.9
	c0-0.5-0.2-0.7-0.6-0.8c-0.5-0.2-0.9-0.2-1.4-0.3c-0.2,0-0.5-0.1-0.7-0.2c-0.6-0.2-0.9-0.6-0.9-1.3c0-0.6,0.2-1.2,0.7-1.5
	c0.5-0.3,0.9-0.3,1.4-0.3c0.5,0,0.9,0.1,1.3,0.2c0.6,0.3,0.8,0.8,0.9,1.4c0,0.2,0,0.2-0.2,0.2c-0.5,0-0.5,0-0.6-0.3
	s-0.3-0.6-0.6-0.7c-0.5-0.2-0.9-0.2-1.5-0.1C35.8,22.5,35.6,22.8,35.6,23.1 M33.1,24.9c-0.6,0-1.3,0-1.8,0c-0.7,0-1.3,0-2,0
	c-0.1,0-0.2,0-0.2,0.2c0,0.9,0.6,1.7,1.5,2c0.8,0.2,1.7,0,2.2-1c0.1-0.2,0.6-0.3,0.8-0.2c0.1,0.1,0,0.1,0,0.2
	c-0.3,0.9-0.9,1.5-1.8,1.6c-0.8,0.1-1.6,0-2.3-0.6c-0.2-0.2-0.3-0.3-0.6-0.7c-0.6-1.3-0.6-2.5,0.1-3.7c0.6-1,1.6-1.4,2.7-1.2
	c1,0.1,1.7,0.9,2,2c0.1,0.2,0.1,0.6,0.1,0.8C33.5,24.9,33.4,24.9,33.1,24.9 M26.8,22.4c-0.9,0.1-1.5,0.8-1.5,1.8c0,1,0,2,0,3
	c0,0.5-0.2,0.6-0.6,0.5c-0.1,0-0.1-0.2-0.1-0.3c0-0.6,0-1.3,0-1.8c0-1.2,0-2.2,0-3.3c0-0.3,0-0.3,0.3-0.3c0.2,0,0.3,0.1,0.3,0.3
	c0,0.1,0,0.3,0,0.5l0,0c0.1-0.1,0.1-0.2,0.2-0.3c0.3-0.5,0.8-0.6,1.4-0.7c0.1,0,0.2,0.1,0.2,0.2C27.3,22.3,27.2,22.4,26.8,22.4
	 M22.7,26.2c-0.8,2.1-3.3,2-4.3,0.8c0,0,0-0.1-0.1-0.1c-0.1,0.1,0,0.2,0,0.3c0,0.8,0,1.6,0,2.4c0,0.2-0.1,0.3-0.3,0.3
	c-0.2,0-0.3-0.1-0.3-0.3c0-2.5,0-5,0-7.5c0-0.2,0.1-0.3,0.3-0.3s0.3,0.1,0.3,0.3c0,0.2,0,0.3,0,0.6c0.2-0.2,0.5-0.5,0.8-0.7
	c1.3-0.7,3.3-0.3,3.7,1.6C23,24.5,23,25.3,22.7,26.2 M14.3,24.9c0.6,0.8,1.2,1.6,1.7,2.4c0.1,0.1,0.2,0.2,0.1,0.3
	c-0.1,0.1-0.2,0-0.3,0.1c-0.3,0-0.5-0.1-0.7-0.3c-0.5-0.7-0.9-1.3-1.3-1.8c-0.2-0.2-0.2-0.2-0.3,0c-0.5,0.7-0.9,1.3-1.4,2
	c-0.1,0.1-0.6,0.2-0.9,0.1c-0.2-0.1,0-0.2,0-0.2c0.5-0.7,0.9-1.3,1.4-2c0.1-0.2,0.3-0.5,0.5-0.6c0.1-0.1,0.1-0.3,0-0.5
	c-0.6-0.7-1-1.5-1.6-2.2c-0.1-0.1-0.2-0.2-0.2-0.3c0.1-0.1,0.2,0,0.3-0.1c0.2,0,0.5,0.1,0.6,0.2c0.3,0.6,0.8,1.2,1.2,1.7
	c0.2,0.2,0.2,0.2,0.3,0c0.5-0.6,0.9-1.3,1.3-1.8c0.1-0.2,0.7-0.3,0.9-0.2c0.1,0.1,0,0.1,0,0.2c-0.5,0.6-0.9,1.2-1.3,1.7
	c-0.1,0.2-0.3,0.5-0.5,0.6C14.2,24.6,14.2,24.7,14.3,24.9 M10.1,24.7c0,0.2-0.1,0.2-0.2,0.2c-0.7,0-1.3,0-2,0c-0.6,0-1.3,0-1.8,0
	c-0.2,0-0.3,0.1-0.3,0.3c0.1,1.4,1.4,2.3,2.7,1.7c0.5-0.2,0.7-0.5,0.8-0.9c0.1-0.2,0.6-0.3,0.8-0.2c0.1,0.1,0,0.1,0,0.2
	c-0.2,0.9-1.2,1.7-2.2,1.7c-0.8,0-1.6-0.1-2.2-0.7c-0.3-0.5-0.6-0.9-0.7-1.5c-0.1-1,0-2.1,0.7-3c0.9-1.2,3.3-1.3,4.1,0.5
	C10.1,23.6,10.1,24.1,10.1,24.7 M48,30.1V19.6c0,0,0-3.3-3.3-3.3H5.3c0,0-3.3,0-3.3,3.3v10.5c0,0,0,3.3,3.3,3.3h39.4
	C44.7,33.5,48,33.5,48,30.1"/>
<g>
	<path class="st1" d="M45,17.4c-0.6-6.1-5.8-11-12.1-11H16.6c-6.3,0-11.5,4.8-12.1,11H45z"/>
	<path class="st1" d="M4.4,32.6c0.6,6.1,5.8,11,12.1,11h16.3c6.3,0,11.5-4.8,12.1-11H4.4z"/>
</g>
</svg>
