<?xml version="1.0" encoding="utf-8"?>
<!-- Generator: Adobe Illustrator 22.1.0, SVG Export Plug-In . SVG Version: 6.00 Build 0)  -->
<svg version="1.1" id="Layer_1" xmlns="http://www.w3.org/2000/svg" xmlns:xlink="http://www.w3.org/1999/xlink" x="0px" y="0px"
	 viewBox="0 0 50 50" style="enable-background:new 0 0 50 50;" xml:space="preserve">
<style type="text/css">
	.st0{fill:#1E1E1E;}
</style>
<path class="st0" d="M13.6,30.7c0,0.7,0,1.4,0,2.1c0,0.2,0,0.2,0.2,0.2c0.4,0,0.8,0,1.2,0l0,0c0.4,0,0.8,0,1.2,0
	c0.4,0,0.7-0.1,1-0.3c0.7-0.5,0.6-1.5,0-1.8c-0.3-0.2-0.7-0.3-1.1-0.3c-0.8,0-1.5,0-2.3,0C13.6,30.6,13.6,30.6,13.6,30.7 M17.3,28.3
	c0.1-0.5-0.2-1-0.7-1.2C16.4,27,16.2,27,16,27c-0.4,0-0.7,0-1.1,0l0,0c-0.4,0-0.7,0-1.1,0h-0.1c-0.1,0-0.1,0-0.1,0.1v0.1
	c0,0.6,0,1.2,0,1.8v0.1c0,0.1,0,0.1,0.1,0.1h0.1c0.7,0,1.4,0,2.1,0c0.2,0,0.5,0,0.7-0.1C17,29,17.3,28.7,17.3,28.3 M24.9,26.9
	c-1.8,0-3.2,1.4-3.2,3.1s1.4,3.1,3.2,3.1c1.7,0,3.1-1.4,3.1-3.1C28,28.3,26.6,26.9,24.9,26.9 M39.8,24.5L39.8,24.5
	c-0.6,0-1.1,0-1.5,0c-0.1,0-0.2,0-0.2-0.1c-0.7-1-1.4-2-2.1-2.9c-0.1-0.1-0.1-0.2-0.2-0.2c-0.1,0-0.1,0.1-0.2,0.2
	c-0.7,1-1.4,2-2.1,3c0,0.1-0.1,0.1-0.2,0.1c-0.5,0-1,0-1.5,0l0,0c0-0.1,0-0.1,0.1-0.1c1-1.4,1.9-2.7,2.9-4.1l0.1-0.1
	c0.1-0.1,0.1-0.1,0-0.3c-0.3-0.5-0.7-1-1-1.5c-0.6-0.8-1.2-1.7-1.7-2.5c0,0-0.1-0.1-0.1-0.2c0,0,0.1,0,0.2,0c0.5,0,0.9,0,1.4,0
	c0.1,0,0.2,0,0.2,0.1c0.6,0.9,1.3,1.8,1.9,2.7l0.1,0.1c0.1-0.1,0.2-0.3,0.3-0.4c0.6-0.8,1.2-1.7,1.8-2.5c0.1-0.1,0.1-0.1,0.3-0.1
	c0.5,0,0.9,0,1.4,0c0,0,0.1,0,0.2,0c0,0.1,0,0.1-0.1,0.1c-0.9,1.2-1.7,2.4-2.6,3.7c-0.1,0.1-0.1,0.2-0.2,0.2c-0.1,0.2-0.1,0.1,0,0.3
	c0.3,0.5,0.7,1,1,1.5c0.7,0.9,1.3,1.9,2,2.8C39.8,24.4,39.9,24.4,39.8,24.5 M30.8,24.4c0,0.1,0,0.1-0.1,0.1s-0.1,0-0.2,0h-5.8
	c-0.1,0-0.1,0-0.2,0s-0.1,0-0.1-0.1v-0.1v-4.1v-4.1V16c0-0.1,0-0.1,0.1-0.1h0.1c1.9,0,3.9,0,5.8,0c0.3,0,0.2,0,0.2,0.2
	c0,0.3,0,0.7,0,1c0,0.1,0,0.1-0.1,0.1h-0.1h-4.3c-0.2,0-0.2,0-0.2,0.2v2v0.1c0,0,0,0.1,0.1,0.1h0.1c1.3,0,2.5,0,3.8,0H30
	c0.1,0,0.1,0,0.1,0.1c0,0.4,0,0.8,0,1.1c0,0.1,0,0.1-0.1,0.1h-0.1h-3.8c-0.2,0-0.2,0-0.2,0.2c0,0.7,0,1.3,0,2v0.1
	c0,0.1,0,0.1,0.1,0.1s0.1,0,0.2,0c1.5,0,2.9,0,4.4,0c0.3,0,0.2,0,0.2,0.2C30.8,23.7,30.8,24,30.8,24.4 M23.2,25.9
	c0.7-0.3,1.5-0.3,2.2-0.3c0.7,0.1,1.4,0.3,2,0.7c0.7,0.4,1.3,1,1.7,1.8c0.2,0.4,0.3,0.9,0.4,1.3c0,0.2,0,0.4,0,0.6c0,1-0.3,2-1,2.7
	c-0.7,0.9-1.6,1.4-2.7,1.6c-0.3,0.1-0.6,0.1-0.9,0.1c-0.6,0-1.2-0.1-1.8-0.3c-0.6-0.2-1.1-0.5-1.5-1c-0.5-0.4-0.8-1-1-1.6
	c-0.2-0.5-0.3-1-0.3-1.6c0-1,0.3-2,1-2.8C21.7,26.6,22.4,26.1,23.2,25.9 M23,23.3c0,0.4,0,0.8,0,1.1c0,0.1,0,0.1-0.1,0.1h-0.1h-4.9
	h-0.1c-0.1,0-0.1,0-0.1-0.1v-0.1v-4.2c0-1.4,0-2.8,0-4.2c0,0,0,0,0-0.1s0-0.1,0.1-0.1c0.4,0,0.8,0,1.2,0c0.1,0,0.1,0,0.1,0.1v0.1
	c0,2.3,0,4.6,0,6.9c0,0.3,0,0.2,0.2,0.2c1.1,0,2.2,0,3.3,0h0.1C23,23.1,23,23.2,23,23.3 M17.5,25.9c0.6,0.2,1.1,0.6,1.3,1.2
	c0.2,0.8,0.1,1.5-0.4,2.1c-0.2,0.2-0.4,0.3-0.7,0.4c0,0-0.1,0-0.2,0.1c0.1,0.1,0.3,0.1,0.4,0.1c0.8,0.3,1.2,0.9,1.3,1.7
	c0,0.3,0,0.7-0.1,1c-0.2,0.6-0.6,1.1-1.2,1.4c-0.5,0.2-1,0.3-1.5,0.4c-0.7,0.1-1.3,0-2,0s-1.4,0-2.2,0c-0.2,0-0.2,0-0.2-0.2V34v-8.2
	c0-0.3,0-0.3,0.3-0.3c1.1,0,2.3,0,3.4,0C16.4,25.6,16.9,25.6,17.5,25.9 M16.4,16c0,0.3,0,0.6,0,0.8c0,0.1,0,0.1,0,0.2s0,0.1-0.1,0.1
	h-0.1c-1.3,0-2.6,0-3.9,0h-0.1c-0.1,0-0.1,0-0.1,0.1v0.1v2.1v0.1c0,0.1,0,0.1,0.1,0.1s0.1,0,0.2,0c1.2,0,2.3,0,3.5,0H16
	c0.1,0,0.1,0,0.1,0.1c0,0.4,0,0.8,0,1.1c0,0.1,0,0.1-0.1,0.1h-0.1c-1.1,0-2.3,0-3.4,0c-0.1,0-0.2,0-0.2,0c-0.1,0-0.1,0-0.1,0.1v0.1
	v3.1v0.1c0,0.1,0,0.1-0.1,0.1c-0.4,0-0.9,0-1.3,0c-0.1,0-0.1,0-0.1-0.1s0-0.1,0-0.2V20c0-1.4,0-2.8,0-4.2c0-0.2,0-0.2,0.2-0.2
	c1.8,0,3.6,0,5.5,0C16.5,15.7,16.4,15.7,16.4,16 M30.2,34.2L30.2,34.2c0.6-0.8,1.1-1.5,1.6-2.2c0.4-0.5,0.7-1,1.1-1.5
	c0.1-0.2,0.2-0.3,0.3-0.5c0.1-0.1,0.1-0.1,0-0.3c-0.3-0.4-0.6-0.9-0.9-1.3c-0.3-0.5-0.6-0.9-1-1.4c-0.3-0.4-0.6-0.8-0.9-1.3l0,0
	c0-0.1-0.1-0.1,0-0.2c0,0,0.1,0,0.2,0c0.4,0,0.9,0,1.3,0c0.2,0,0.3,0.1,0.3,0.2c0.4,0.5,0.7,1.1,1.1,1.6c0.3,0.4,0.5,0.8,0.8,1.1
	c0.1,0.1,0.1,0.1,0.2,0c0.3-0.4,0.6-0.9,0.9-1.3c0.3-0.4,0.5-0.7,0.8-1.1c0.1-0.1,0.2-0.2,0.2-0.4c0-0.1,0.1-0.1,0.2-0.1
	c0.5,0,0.9,0,1.4,0c0,0,0,0,0.1,0s0.1,0.1,0,0.1c-0.1,0.2-0.2,0.3-0.3,0.5c-0.4,0.5-0.7,1.1-1.1,1.6c-0.4,0.6-0.9,1.2-1.3,1.9
	c-0.1,0.2-0.1,0.2,0,0.3c0.5,0.7,1,1.4,1.5,2.2c0.5,0.7,1,1.4,1.5,2.1c0.1,0.1,0.1,0.1-0.1,0.1c-0.2,0-0.5,0-0.8,0l0,0
	c-0.2,0-0.5,0-0.7,0c-0.1,0-0.2,0-0.3-0.1c-0.2-0.3-0.4-0.5-0.6-0.8c-0.5-0.7-1.1-1.5-1.6-2.2c-0.1-0.1-0.1-0.1-0.2,0
	c-0.5,0.7-0.9,1.3-1.4,2c-0.2,0.3-0.5,0.7-0.7,1c-0.1,0.1-0.2,0.2-0.3,0.2c-0.4,0-0.9,0-1.3,0h-0.1C30.2,34.4,30.1,34.3,30.2,34.2
	 M45.7,33.4V16.8c0,0,0-5-5-5h-31c0,0-5,0-5,5v16.6c0,0,0,5,5,5h31C40.7,38.4,45.7,38.4,45.7,33.4"/>
</svg>
