<?xml version="1.0" encoding="utf-8"?>
<!-- Generator: Adobe Illustrator 22.1.0, SVG Export Plug-In . SVG Version: 6.00 Build 0)  -->
<svg version="1.1" id="Layer_1" xmlns="http://www.w3.org/2000/svg" xmlns:xlink="http://www.w3.org/1999/xlink" x="0px" y="0px"
	 viewBox="0 0 50 50" style="enable-background:new 0 0 50 50;" xml:space="preserve">
<style type="text/css">
	.st0{fill:#1E1E1E;}
</style>
<path class="st0" d="M46.2,22.7L27,3.4c-1.2-1.2-2.9-1.2-4.1,0L19,7.4l5.1,5.1c2.7-0.9,5.2,1.6,4.3,4.3l4.9,4.9c3.4-1.2,6,3,3.5,5.6
	c-2.5,2.5-7-0.2-5.6-3.7L26.6,19v11.9c2.4,1.3,2.2,4.1,0.9,5.4c-1.3,1.3-3.5,1.3-4.7,0c-1.7-1.7-1-4.6,1.2-5.6V18.9
	c-2.1-0.8-2.4-3-1.9-4.4l-5-5L3.8,22.6c-1.2,1.2-1.2,2.9,0,4.1L23,45.8c1.2,1.2,2.9,1.2,4.1,0l19.1-19.1
	C47.3,25.6,47.3,23.8,46.2,22.7"/>
</svg>
