<?xml version="1.0" encoding="utf-8"?>
<!-- Generator: Adobe Illustrator 22.1.0, SVG Export Plug-In . SVG Version: 6.00 Build 0)  -->
<svg version="1.1" id="Layer_1" xmlns="http://www.w3.org/2000/svg" xmlns:xlink="http://www.w3.org/1999/xlink" x="0px" y="0px"
	 viewBox="0 0 50 50" style="enable-background:new 0 0 50 50;" xml:space="preserve">
<style type="text/css">
	.st0{fill:#1E1E1E;}
</style>
<g>
	<path class="st0" d="M44,19.7c-0.7,2.4-1.4,4.8-2.1,7.2c-0.2,0.9-0.5,1.6-0.7,2.5c-0.1,0.2-0.1,0.4-0.4,0.4c-0.4,0-0.7,0-1.1,0
		c0.2-0.9,0.5-1.6,0.7-2.4c0.7-2.5,1.5-5.1,2.2-7.6c0.1-0.2,0.1-0.2,0.4-0.2c0.2,0,0.6,0,0.9,0C44,19.5,44.1,19.5,44,19.7
		 M39.5,19.7c-0.4,1.4-0.9,2.9-1.2,4.2c-0.5,1.9-1.1,3.6-1.6,5.5c-0.1,0.2-0.1,0.4-0.4,0.2c-0.1,0-0.2,0-0.5,0
		c-0.2,0-0.5,0.1-0.6-0.1c-0.1-0.1,0.1-0.4,0.1-0.6c0.9-3.1,1.9-6.2,2.7-9.2c0.1-0.2,0.1-0.2,0.4-0.2s0.6,0,0.9,0
		C39.5,19.5,39.6,19.5,39.5,19.7 M33.7,23.8c-0.5,0-1.1,0-1.6,0c-0.1-0.2,0-0.5,0-0.7s0-0.6,0-0.9c0.5,0,1.1,0,1.6,0
		c0.1,0.4,0,0.6,0,1C33.7,23.4,33.7,23.7,33.7,23.8 M33.7,28.4c-0.1,0.1-0.2,0-0.2,0c-0.4,0-0.9,0-1.2,0c-0.1,0,0-0.1,0-0.1
		c0-0.4,0-0.9,0-1.2c0-0.2,0-0.2,0.2-0.2c0.4,0,0.7,0,1.1,0c0.1,0,0.2,0,0.2,0.1C33.7,27.4,33.7,27.9,33.7,28.4 M29.7,27.8
		c-0.4,0.5-0.9,0.7-1.5,0.9c-0.2,0-0.5,0-0.7,0c-0.6-0.1-1.1-0.4-1.5-0.9l0,0c0,0,0-0.1-0.1,0c0,0,0,0.1,0,0.2c0,0.9,0,1.9,0,2.7
		c0,0.2,0,0.2-0.2,0.2c-0.5,0-0.9,0-1.4,0C24,31,24,30.9,24,30.8c0-2.4,0-4.7,0-7.1c0-0.1,0-0.2,0-0.4s0-0.1,0-0.2V23
		c0-0.5,0-0.5,0.5-0.5c0.4,0,0.7,0,1.1,0c0.2,0,0.4,0,0.4,0.2c0,0.1,0,0.2,0,0.4c0.1-0.1,0.2-0.2,0.4-0.4c1-0.9,2.5-0.6,3.3,0.4
		C30.8,24.2,30.8,26.6,29.7,27.8 M23.1,28.5c-0.5,0.1-0.9,0.2-1.4,0.1c-0.2,0-0.5,0-0.7,0c-0.7-0.2-1.1-0.6-1.2-1.4
		c-0.1-1.1,0-2.2,0-3.5c0-0.2,0-0.4-0.4-0.4c-0.2,0-0.5,0-0.7,0c-0.1,0-0.1,0-0.1-0.1c0-0.2,0-0.6,0-0.9c0-0.1,0-0.1,0.1-0.1
		c0.2,0,0.5,0,0.9,0c0.2,0,0.2-0.1,0.2-0.2c0-0.2,0-0.5,0-0.7c0-0.1,0-0.2,0.1-0.2c0.5-0.1,1-0.4,1.5-0.5c0.1,0,0.2,0,0.2,0.1
		c0,0.5,0,1,0,1.5c0,0.2,0,0.2,0.2,0.2c0.4,0,0.6,0,1,0c0.2,0,0.2,0.1,0.2,0.2c0,0.2,0,0.5,0,0.7c0,0.2,0,0.2-0.2,0.2
		c-0.4,0-0.6,0-1,0c-0.1,0-0.2,0-0.2,0.2c0,1,0,2,0,3.1c0,0.5,0.2,0.7,0.7,0.7c0.2,0,0.4-0.1,0.6,0C23.1,27.8,23.3,28.2,23.1,28.5
		 M16.9,26.7c0,0.6,0.2,0.7,0.9,0.7c0.5,0,0.5,0,0.5,0.5c0,0.6,0,0.6-0.6,0.6c-0.4,0-0.9,0.1-1.2,0.1c-0.9,0-1.4-0.6-1.4-1.5
		c0-0.1,0-0.1,0-0.2c-0.1-0.1,0-0.1,0-0.2c0-1,0-2,0-3c0-0.1,0-0.2,0-0.4c-0.4,0-0.6,0-1,0c-0.1,0-0.2,0-0.2-0.2s0-0.5,0-0.7
		c0-0.1,0-0.2,0.2-0.2c0.2,0,0.5,0,0.9,0c0.1,0,0.1,0,0.2,0c0-0.4,0-0.7,0-1.1c0.6-0.2,1.1-0.4,1.7-0.6c0.1-0.1,0.1,0,0.1,0.1
		c0,0.5,0,1,0,1.5c0,0.1,0,0.2,0.2,0.2c0.4,0,0.6,0,1,0c0.1,0,0.2,0,0.2,0.2s0,0.5,0,0.9c0,0.1-0.1,0.2-0.2,0.2c-0.4,0-0.6,0-1,0
		c-0.1,0-0.2,0-0.2,0.2C16.9,24.7,16.9,25.7,16.9,26.7 M13,28.5c-0.5,0-1.1,0-1.6,0c-0.1,0-0.2,0-0.2,0v-0.1c0-1.1,0-2.4,0-3.5v-0.1
		c0-0.2,0-0.5-0.1-0.7c-0.2-0.6-1.2-0.7-1.6-0.2C9.1,24.2,9,24.6,9,24.9c0,1.1,0,2.4,0,3.5c0,0.2,0,0.2-0.2,0.2c-0.5,0-0.9,0-1.4,0
		c-0.1,0-0.2,0-0.2-0.1c-0.1-0.1,0-0.1,0-0.2c0-2.9,0-5.6,0-8.4c0-0.1,0-0.1,0-0.2c0.1-0.1,0.1,0,0.2,0c0.5,0,0.9,0,1.4,0
		c0.2,0,0.2,0,0.2,0.2c0,1,0,2,0,2.9V23c0.1,0,0.1,0,0.1,0c0.9-1.1,2.6-1.1,3.6,0c0.4,0.4,0.4,0.9,0.5,1.5c0.1,0.1,0,0.2,0,0.2
		c0,1.2,0,2.5,0,3.6C13,28.3,13,28.4,13,28.5 M47.8,14.4c0-0.6-0.1-1.1-0.8-1.2l0,0c-1.6,0-3.3,0-5.1,0c-12.4,0-24.9,0-37.3,0
		c-0.5,0-0.9,0-1.4,0l0,0H3.2c-0.6,0.2-1,0.7-1,1.5c0,6.9,0,13.8,0,20.7c0,0.1,0,0.4,0,0.5c0.1,0.6,0.6,1,1.1,1c0.1,0,0.2,0,0.2,0
		c14.3,0,28.7,0,42.9,0c0.1,0,0.2,0,0.2,0c0.7,0,1.1-0.6,1.1-1.4c0-6.5,0-12.9,0-19.4"/>
	<path class="st0" d="M28.6,25.8c0,0.2,0,0.5-0.1,0.7c-0.1,0.5-0.5,0.7-1,0.9c-0.5,0-1-0.2-1.1-0.6c-0.5-0.9-0.5-1.9,0-2.9
		c0.2-0.5,0.6-0.7,1.2-0.6c0.5,0,0.9,0.4,1,0.9c0.1,0.2,0.1,0.4,0.1,0.6C28.6,25.1,28.6,25.4,28.6,25.8"/>
</g>
</svg>
