<?xml version="1.0" encoding="utf-8"?>
<!-- Generator: Adobe Illustrator 22.1.0, SVG Export Plug-In . SVG Version: 6.00 Build 0)  -->
<svg version="1.1" id="Layer_1" xmlns="http://www.w3.org/2000/svg" xmlns:xlink="http://www.w3.org/1999/xlink" x="0px" y="0px"
	 viewBox="0 0 50 50" style="enable-background:new 0 0 50 50;" xml:space="preserve">
<style type="text/css">
	.st0{fill:#1E1E1E;}
</style>
<path class="st0" d="M35.5,42.3c-3.6,0-5.8-1.8-7-4l3.2-1.8c0.8,1.3,1.9,2.3,3.7,2.3c1.6,0,2.6-0.8,2.6-1.9c0-1.3-1.1-1.8-2.8-2.6
	l-0.9-0.5c-2.8-1.2-4.6-2.7-4.6-5.8c0-2.9,2.2-5,5.6-5c2.5,0,4.2,0.8,5.5,3l-3,1.9c-0.7-1.2-1.4-1.6-2.5-1.6c-1.2,0-1.9,0.7-1.9,1.6
	c0,1.2,0.7,1.6,2.3,2.3l0.9,0.5c3.3,1.4,5.1,2.8,5.1,6.1C41.9,40.4,39.2,42.3,35.5,42.3 M26.5,36.5c0,4-2.3,5.8-5.7,5.8
	c-3,0-4.9-1.6-5.7-3.5l3.2-1.9c0.6,1.1,1.2,2,2.5,2s2.1-0.5,2.1-2.5V23.4h3.9 M4.2,45.5h40.9V4.6H4.2V45.5z"/>
</svg>
