<?xml version="1.0" encoding="utf-8"?>
<!-- Generator: Adobe Illustrator 22.1.0, SVG Export Plug-In . SVG Version: 6.00 Build 0)  -->
<svg version="1.1" id="Layer_1" xmlns="http://www.w3.org/2000/svg" xmlns:xlink="http://www.w3.org/1999/xlink" x="0px" y="0px"
	 viewBox="0 0 50 50" style="enable-background:new 0 0 50 50;" xml:space="preserve">
<style type="text/css">
	.st0{fill:#1E1E1E;}
</style>
<path class="st0" d="M29.8,30.9c0,1.3,0.1,2.1,0.5,2.8c0.4,0.5,0.9,0.8,1.5,0.8c1.4,0,2-1.1,2-3.3c0-1.3-0.1-2.1-0.5-2.6
	c-0.4-0.5-0.9-0.8-1.5-0.8C30.5,27.7,29.8,28.8,29.8,30.9 M31.9,15.7L31.9,15.7c-0.1-0.1-0.1-0.4-0.3-0.5c-0.1-0.1-0.3-0.3-0.4-0.4
	l0,0l0,0c0.1,0,0.3,0,0.4,0c0.1,0.1,0.3,0.1,0.3,0.3s0.1,0.1,0.1,0.1v0.1C32.2,15.5,32.2,15.6,31.9,15.7 M43.7,27.3
	c-0.1,0-0.3-0.3-0.4-0.3c-0.3-0.1-0.5-0.4-0.8-0.5c-0.4-0.3-0.9-0.4-1.3-0.6c-0.3-0.1-0.5-0.3-0.6-0.5c-0.3-0.1-0.4-0.4-0.5-0.6
	c-0.1-0.1-0.1-0.3-0.1-0.4c0-0.3,0.3-0.3,0.4-0.3c0.5-0.3,1.3-0.4,2-0.3c0-0.3-0.5-0.5-0.8-0.6c-0.4-0.3-0.6-0.5-1-0.8
	c-0.3-0.1-0.5-0.3-0.8-0.3c-0.3-0.1-0.9-0.3-1.1-0.5c-0.3-0.4-0.5-0.9-0.8-1.4c-0.3-0.5-0.5-1-0.8-1.5c-0.1-0.3-0.1-0.5-0.3-0.8
	c-0.8-1.5-1.9-2.8-3.3-3.6c-0.5-0.3-1-0.5-1.5-0.8c-0.4-0.1-0.8,0-1-0.1H31c-0.3,0-0.4-0.3-0.5-0.4c-0.4-0.3-0.6-0.4-1-0.5
	c-0.1,0-0.5-0.3-0.6-0.1c-0.1,0-0.1,0-0.1,0.1c-0.1,0.1,0,0.3,0,0.4c0.1,0.4,0.4,0.5,0.6,0.9c0.1,0.3,0.4,0.5,0.5,0.8
	c0.3,0.6,0.4,1.3,0.6,1.9c0.1,0.3,0.3,0.5,0.4,0.6c0.1,0.1,0.4,0.3,0.4,0.5c0.1,0.3-0.3,0.9-0.3,1.1c-0.3,0.9-0.3,2,0.1,2.8
	c0.1,0.3,0.3,0.6,0.6,0.8l0,0c0.1-0.6,0.1-1.1,0.3-1.6c0.1-0.3,0.4-0.5,0.5-0.8c0.1,0.1,0.1,0.3,0.1,0.4c0.1,0.4,0.3,0.6,0.5,1
	c0.4,0.6,0.8,1.4,1.1,1.9c0.1,0.3,0.4,0.5,0.5,0.6c0.1,0.1,0.1,0.1,0.3,0.3l0,0l0,0c-0.4-0.1-0.5-0.5-0.8-0.6
	c-0.5-0.4-1-0.9-1.4-1.4c-0.1-0.3-0.3-0.6-0.4-0.9l0,0c0,0.1,0,0.1-0.1,0.3c-0.1,0.5,0,1.1-0.5,1.3c-0.5,0.3-0.9-0.4-1.1-0.6
	c-0.5-0.9-0.6-2.4-0.3-3.5c0.1-0.3,0.1-0.6,0.3-0.8c0-0.3-0.1-0.3-0.3-0.4c-0.1-0.3-0.3-0.4-0.4-0.6c-0.3-0.4-0.4-1-0.5-1.4
	c-0.1-0.3-0.1-0.4-0.1-0.5c-0.1-0.3-0.4-0.5-0.5-0.8c-0.3-0.4-1-1-0.6-1.8c0.5-1.1,2-0.3,2.6,0.1c0.1,0.1,0.4,0.3,0.5,0.4h0.8
	c0.5,0.1,1,0.3,1.4,0.4c1.8,1,3,2.1,4,3.9c0.3,0.4,0.4,0.8,0.5,1.3c0.3,0.6,0.5,1.3,0.9,1.9c0.1,0.3,0.3,0.6,0.4,0.8
	c0.1,0.1,0.3,0.1,0.4,0.3c0.4,0.1,0.8,0.3,1.1,0.5c0.6,0.4,1.3,0.9,1.8,1.3c0.3,0.1,0.4,0.4,0.5,0.6v0.1c-0.1,0-0.4,0.1-0.5,0.1
	c-0.4,0.1-0.6,0.1-1,0.1c-0.3,0.1-0.5,0.1-0.8,0.1l0,0c0.1,0.4,0.9,0.8,1.3,0.9c0.4,0.3,0.8,0.6,1.1,1l0.4,0.3
	C43.6,27,43.6,27.2,43.7,27.3L43.7,27.3z M23.9,28.8c0,0.5,0.4,1,1,1.4c0.6,0.3,1.9,1,1.9,1c0.6,0.5,1,1,1,1.9
	c0,0.8-0.3,1.4-0.8,1.8c-0.5,0.5-1.3,0.8-2.1,0.8c-0.9,0-1.6-0.3-2.5-0.8l0.1-0.4c0,0,0.1-0.4,0.5-0.3c0.4,0.1,1,0.4,1.5,0.4
	c0.5,0,0.9-0.1,1.3-0.4c0.3-0.3,0.5-0.5,0.5-1s-0.4-1-1-1.4c-0.6-0.4-1.9-1-1.9-1c-0.6-0.5-1-1-1-1.9c0-0.8,0.3-1.3,0.8-1.8
	c0.5-0.4,1.1-0.6,1.9-0.6c0.8,0,1.5,0.3,2.1,0.6L27,27.5c0,0-0.1,0.4-0.5,0.3c-0.3-0.1-0.9-0.3-1.4-0.3s-0.8,0.1-1,0.4
	C24,28.2,23.9,28.4,23.9,28.8 M21.4,29c-0.6,3.3-1.4,5.5-2.4,7c-0.8,1.1-1.6,1.6-2.5,1.6c-0.3,0-0.5-0.1-0.9-0.3v-0.8
	c0.1,0,0.4,0,0.6,0c0.4,0,0.8-0.1,1-0.4c0.3-0.3,0.5-0.6,0.5-1c0-0.3-0.1-0.8-0.4-1.5l-1.6-4.9h1.4l1.1,3.6c0.3,0.9,0.4,1.4,0.4,1.8
	c0.6-1.6,1-3.5,1.3-5.4h1.5V29z M15.1,35.4h-1.5c0-2.5-0.3-4.8-0.4-6.9l0,0l-2.3,6.9H9.8l-2.1-6.9l0,0c-0.1,2-0.3,4.4-0.3,6.9H6
	c0.1-3.1,0.3-6,0.6-8.7h1.8l2.1,6.4l0,0l1.1-3.3c0,0,1-3.1,1.9-3.1c0,0,0.9,0,1,1.6C14.8,29.9,15.1,32.8,15.1,35.4 M28.4,31.2
	c0-1.5,0.4-2.8,1-3.5c0.6-0.8,1.5-1.1,2.6-1.1c2.3,0,3.4,1.4,3.4,4.3c0,1.5-0.4,2.8-1,3.5c-0.1,0.1-0.3,0.3-0.4,0.4l1.6,0.8l-0.6,1
	l-2.1-1.3c-0.4,0.1-0.8,0.1-1.1,0.1c-1.1,0-1.9-0.4-2.5-1C28.6,33.8,28.4,32.7,28.4,31.2 M36.6,26.6h1.4v7.7h2.8v1.1h-2.1
	c0,0-2,0-2-2V26.6z M48.1,34.3V15.5c0,0,0-5.7-5.7-5.7H7.3c0,0-5.7,0-5.7,5.7v18.9c0,0,0,5.7,5.7,5.7h35.1
	C42.5,40,48.1,40,48.1,34.3"/>
</svg>
