<?xml version="1.0" encoding="utf-8"?>
<!-- Generator: Adobe Illustrator 22.1.0, SVG Export Plug-In . SVG Version: 6.00 Build 0)  -->
<svg version="1.1" id="Layer_1" xmlns="http://www.w3.org/2000/svg" xmlns:xlink="http://www.w3.org/1999/xlink" x="0px" y="0px"
	 viewBox="0 0 50 50" style="enable-background:new 0 0 50 50;" xml:space="preserve">
<style type="text/css">
	.st0{fill:#1E1E1E;}
	.st1{fill:none;}
</style>
<g>
	<path class="st0" d="M24.6,26.2L24.6,26.2L24.6,26.2L24.6,26.2z M19.2,16.8L19.2,16.8L19.2,16.8L19.2,16.8z M24.5,25.9v-5.1
		c0-0.2-0.1-0.3-0.2-0.5l-4.4-2.6c-0.1-0.1-0.3-0.1-0.6,0l-4.4,2.5c-0.1,0.1-0.3,0.2-0.3,0.5v5.1c0,0.2,0.1,0.3,0.3,0.5l4.4,2.6
		c0.2,0.1,0.3,0.1,0.6,0l4.4-2.6C24.4,26.1,24.5,26,24.5,25.9L24.5,25.9 M43.1,22.7L43.1,22.7v1v0.1l0.9,0.5h0.1l0.9-0.5
		c0,0,0,0,0-0.1v-1v-0.1l-0.9-0.5H44L43.1,22.7z M48.8,22.3c0.1-0.1,0.2-0.2,0.2-0.5v-1.3c0-0.2-0.1-0.3-0.2-0.5l-4.4-2.6
		c-0.1-0.1-0.3-0.1-0.6,0l-4.4,2.6c-0.1,0.1-0.2,0.2-0.2,0.5v5.1c0,0.2,0.1,0.3,0.2,0.5l4.4,2.5c0.1,0.1,0.3,0.1,0.6,0l2.7-1.5
		c0.2-0.1,0.2-0.3,0-0.5l-4.6-2.6c-0.1,0-0.1-0.1-0.1-0.2v-1.6c0-0.1,0-0.2,0.1-0.2l1.4-0.8c0.1,0,0.2,0,0.2,0l1.4,0.8
		c0.1,0,0.1,0.1,0.1,0.2v1.4c0,0.2,0.2,0.3,0.5,0.2L48.8,22.3z M33.4,22.4c0,0,0-0.1-0.1-0.1l-1.5-0.9h-0.1l-1.5,0.9l-0.1,0.1v1.8
		c0,0,0,0.1,0.1,0.1l1.5,0.9h0.1l1.5-0.9l0.1-0.1V22.4L33.4,22.4z M36.8,13v12.9c0,0.2-0.1,0.3-0.2,0.5l-4.4,2.6
		c-0.1,0.1-0.3,0.1-0.6,0l-4.4-2.6c-0.1-0.1-0.2-0.2-0.2-0.5v-5.1c0-0.2,0.1-0.3,0.2-0.5l4.4-2.6c0.1-0.1,0.3-0.1,0.6,0l1.1,0.7
		c0.1,0.1,0.2,0,0.2-0.1v-6.8c0-0.2,0.2-0.3,0.5-0.2l2.6,1.5C36.7,12.7,36.8,12.9,36.8,13 M12.3,20.6c0-0.2-0.1-0.3-0.2-0.5
		l-4.4-2.6c-0.1,0-0.1-0.1-0.2-0.1l0,0c-0.1,0-0.1,0-0.2,0.1l-4.4,2.6c-0.3,0.1-0.5,0.2-0.5,0.5v6.9c0,0.1,0,0.2,0.1,0.2
		s0.2,0,0.2,0l2.6-1.5c0.1-0.1,0.2-0.2,0.2-0.5v-3.3c0-0.2,0.1-0.3,0.2-0.5l1.1-0.7c0.1,0,0.2-0.1,0.2-0.1c0.1,0,0.2,0,0.2,0.1
		l1.1,0.7c0.1,0.1,0.2,0.2,0.2,0.5v3.2c0,0.2,0.1,0.3,0.2,0.5l2.6,1.5c0.1,0,0.2,0,0.2,0c0.1,0,0.1-0.1,0.1-0.2L12.3,20.6z M32.2,31
		c0-0.1-0.1-0.1-0.1-0.1h-0.1v0.2l0,0C32,31.1,32.2,31.1,32.2,31 M32.3,31.7H32c0,0,0-0.2,0-0.3c0,0,0-0.1-0.1-0.1h-0.1v0.5h-0.2
		v-0.9h0.3c0.1,0,0.3,0,0.3,0.2c0,0.1-0.1,0.2-0.2,0.2c0.1,0,0.1,0.1,0.1,0.2C32.3,31.4,32.3,31.6,32.3,31.7 M32.6,31.2
		c0-0.3-0.3-0.7-0.7-0.7c-0.3,0-0.7,0.3-0.7,0.7c0,0.3,0.3,0.7,0.7,0.7C32.4,31.9,32.6,31.6,32.6,31.2 M32.7,31.2
		c0,0.5-0.3,0.8-0.8,0.8c-0.5,0-0.8-0.3-0.8-0.8c0-0.5,0.3-0.8,0.8-0.8S32.7,30.8,32.7,31.2 M28.9,34.9c0-0.9-0.6-1.1-1.9-1.4
		c-1.4-0.2-1.5-0.2-1.5-0.6c0-0.2,0.1-0.6,1-0.6s1.1,0.2,1.4,0.8c0,0.1,0.1,0.1,0.1,0.1h0.6h0.1v-0.1c-0.1-1-0.8-1.5-2-1.5
		s-1.9,0.5-1.9,1.4c0,0.9,0.7,1.1,1.8,1.3c1.4,0.1,1.5,0.3,1.5,0.6c0,0.5-0.3,0.7-1.3,0.7c-1.1,0-1.4-0.2-1.5-0.8
		c0-0.1-0.1-0.1-0.1-0.1h-0.6c-0.1,0-0.1,0-0.1,0.1c0,0.7,0.3,1.6,2.3,1.6C28.1,36.3,28.9,35.8,28.9,34.9 M25.4,39.6
		c-0.1,0-0.3,0-0.5-0.1l-1.4-0.8c-0.2-0.1-0.1-0.1,0-0.2c0.2-0.1,0.3-0.1,0.7-0.3h0.1l1,0.7h0.1l4.2-2.4l0.1-0.1v-4.9
		c0,0,0-0.1-0.1-0.1l-4.2-2.4h-0.1l-4.2,2.4l-0.1,0.1v4.9c0,0,0,0.1,0.1,0.1l1.1,0.7c0.6,0.3,1-0.1,1-0.5v-4.8c0-0.1,0-0.1,0.1-0.1
		H24c0.1,0,0.1,0,0.1,0.1v4.8c0,0.8-0.5,1.4-1.3,1.4c-0.2,0-0.5,0-1-0.2l-1.1-0.7c-0.2-0.1-0.5-0.5-0.5-0.8v-4.9
		c0-0.3,0.1-0.6,0.5-0.8l4.2-2.4c0.2-0.1,0.6-0.1,0.9,0l4.2,2.4c0.2,0.1,0.5,0.5,0.5,0.8v4.9c0,0.3-0.1,0.6-0.5,0.8l-4.2,2.4
		C25.7,39.6,25.6,39.6,25.4,39.6"/>
	<rect x="2.3" y="11.1" class="st1" width="46.7" height="28.6"/>
	<rect x="2.3" y="11.1" class="st1" width="46.7" height="28.6"/>
</g>
</svg>
