<?xml version="1.0" encoding="utf-8"?>
<!-- Generator: Adobe Illustrator 22.1.0, SVG Export Plug-In . SVG Version: 6.00 Build 0)  -->
<svg version="1.1" id="Layer_1" xmlns="http://www.w3.org/2000/svg" xmlns:xlink="http://www.w3.org/1999/xlink" x="0px" y="0px"
	 viewBox="0 0 50 50" style="enable-background:new 0 0 50 50;" xml:space="preserve">
<style type="text/css">
	.st0{opacity:0.75;}
	.st1{clip-path:url(#SVGID_11_);}
	.st2{clip-path:url(#SVGID_15_);}
	.st3{fill:#1E1E1E;}
	.st4{fill:none;}
</style>
<g>
	<g>
		<g class="st0">
			<g>
				<g>
					<defs>
						<polyline id="SVGID_1_" points="-11.7,22.1 -11.7,1.1 62.1,1.1 62.1,22.1 						"/>
					</defs>
					<clipPath id="SVGID_2_">
						<use xlink:href="#SVGID_1_"  style="overflow:visible;"/>
					</clipPath>
				</g>
			</g>
		</g>
		<g class="st0">
			<g>
				<g>
					<defs>
						<polyline id="SVGID_3_" points="-11.9,33.7 -11.9,12.7 61.8,12.7 61.8,33.7 						"/>
					</defs>
					<clipPath id="SVGID_4_">
						<use xlink:href="#SVGID_3_"  style="overflow:visible;"/>
					</clipPath>
				</g>
			</g>
		</g>
		<g class="st0">
			<g>
				<g>
					<defs>
						<polyline id="SVGID_5_" points="-11.9,26 -11.9,5 56.8,5 56.8,26 						"/>
					</defs>
					<clipPath id="SVGID_6_">
						<use xlink:href="#SVGID_5_"  style="overflow:visible;"/>
					</clipPath>
				</g>
			</g>
		</g>
		<g class="st0">
			<g>
				<g>
					<defs>
						<polyline id="SVGID_7_" points="-6.4,29.8 -6.4,8.8 61.8,8.8 61.8,29.8 						"/>
					</defs>
					<clipPath id="SVGID_8_">
						<use xlink:href="#SVGID_7_"  style="overflow:visible;"/>
					</clipPath>
				</g>
			</g>
		</g>
		<g class="st0">
			<g>
				<g>
					<defs>
						<line id="SVGID_9_" x1="-7" y1="45.8" x2="-7" y2="19.3"/>
					</defs>
					<defs>
						<line id="SVGID_10_" x1="43.6" y1="19.3" x2="43.6" y2="45.8"/>
					</defs>
					<clipPath id="SVGID_11_">
						<use xlink:href="#SVGID_9_"  style="overflow:visible;"/>
					</clipPath>
					<clipPath id="SVGID_12_" class="st1">
						<use xlink:href="#SVGID_10_"  style="overflow:visible;"/>
					</clipPath>
				</g>
			</g>
		</g>
		<g class="st0">
			<g>
				<g>
					<defs>
						<line id="SVGID_13_" x1="1.2" y1="45.8" x2="1.2" y2="19.3"/>
					</defs>
					<defs>
						<line id="SVGID_14_" x1="51.8" y1="19.3" x2="51.8" y2="45.8"/>
					</defs>
					<clipPath id="SVGID_15_">
						<use xlink:href="#SVGID_13_"  style="overflow:visible;"/>
					</clipPath>
					<clipPath id="SVGID_16_" class="st2">
						<use xlink:href="#SVGID_14_"  style="overflow:visible;"/>
					</clipPath>
				</g>
			</g>
		</g>
		<g class="st0">
			<g>
				<g>
					<defs>
						<line id="SVGID_17_" x1="57.3" y1="19.5" x2="57.3" y2="45.7"/>
					</defs>
					<clipPath id="SVGID_18_">
						<use xlink:href="#SVGID_17_"  style="overflow:visible;"/>
					</clipPath>
				</g>
			</g>
		</g>
		<g class="st0">
			<g>
				<g>
					<defs>
						<line id="SVGID_19_" x1="-11.9" y1="44.4" x2="-11.9" y2="21.5"/>
					</defs>
					<clipPath id="SVGID_20_">
						<use xlink:href="#SVGID_19_"  style="overflow:visible;"/>
					</clipPath>
				</g>
			</g>
		</g>
		<g class="st0">
			<g>
				<g>
					<defs>
						<line id="SVGID_21_" x1="61.8" y1="21.4" x2="61.8" y2="44.4"/>
					</defs>
					<clipPath id="SVGID_22_">
						<use xlink:href="#SVGID_21_"  style="overflow:visible;"/>
					</clipPath>
				</g>
			</g>
		</g>
		<g class="st0">
			<g>
				<g>
					<defs>
						<polyline id="SVGID_23_" points="15.3,5 61.8,5 61.8,26 						"/>
					</defs>
					<clipPath id="SVGID_24_">
						<use xlink:href="#SVGID_23_"  style="overflow:visible;"/>
					</clipPath>
				</g>
			</g>
		</g>
		<g class="st0">
			<g>
				<g>
					<defs>
						<polyline id="SVGID_25_" points="-11.9,29.8 -11.9,8.8 34.6,8.8 						"/>
					</defs>
					<clipPath id="SVGID_26_">
						<use xlink:href="#SVGID_25_"  style="overflow:visible;"/>
					</clipPath>
				</g>
			</g>
		</g>
		<path class="st3" d="M40.7,12.9c-0.8,0-1.4-0.6-1.4-1.4c0-0.7,0.6-1.4,1.4-1.4c0.8,0,1.4,0.6,1.4,1.4S41.4,12.9,40.7,12.9
			 M35.8,12.9c-0.7,0-1.4-0.6-1.4-1.4c0-0.7,0.7-1.4,1.4-1.4c0.8,0,1.4,0.6,1.4,1.4S36.7,12.9,35.8,12.9 M30.9,12.9
			c-0.8,0-1.4-0.7-1.4-1.4c0-0.8,0.7-1.4,1.4-1.4c0.8,0,1.4,0.7,1.4,1.4C32.4,12.3,31.6,13,30.9,12.9 M43.9,7.6c-7,0-14.2,0-21.2,0
			c-5.6,0-11.2,0-16.8,0C5.5,7.6,5,7.8,4.7,8C4.1,8.4,4.1,8.8,4.1,9.5c0,9.7,0,19.3,0,29c0,0.4,0,0.6,0,1c0,0.7,0.6,1.4,1.3,1.4
			c0.7,0.1,1.6,0,2.3,0V39H6.1V15.3h37.8V39h-1.6v1.9c0.6,0,1.1,0,1.7,0c1.4,0,2-0.6,2-1.9c0-9.9,0-19.7,0-29.6
			C45.8,8.2,45.3,7.6,43.9,7.6"/>
		<polyline class="st4" points="4.1,43.6 4.1,7.6 46,7.6 46,43.6 		"/>
		<polyline class="st4" points="4.1,43.6 4.1,7.6 46,7.6 46,43.6 		"/>
	</g>
	<line class="st4" x1="61.9" y1="21.5" x2="-11.8" y2="21.5"/>
	<path class="st3" d="M25,17.2c4.7,0,9.4,0,14.1,0c0.1,0,0.4,0,0.5,0c0.5,0.1,0.8,0.5,0.8,1c0,0.5-0.4,0.8-0.7,1c-0.2,0-0.5,0-0.8,0
		c-9.3,0-18.6,0-27.9,0c-0.1,0-0.2,0-0.4,0c-0.6,0-1-0.5-1-1c0-0.5,0.4-1,1-1c0.5,0,0.8,0,1.3,0C16.3,17.2,20.6,17.2,25,17.2"/>
	<line class="st4" x1="61.7" y1="33.1" x2="-12.1" y2="33.1"/>
	<path class="st3" d="M24.8,30.7c-4.7,0-9.3,0-14,0c-0.1,0-0.4,0-0.5,0c-0.6,0-1-0.4-1-1c0-0.6,0.4-1,1-1c0.7,0,1.4,0,2.1,0
		c6,0,11.8,0,17.8,0c2.9,0,5.7,0,8.5,0c0.1,0,0.4,0,0.5,0c0.6,0.1,1,0.5,0.8,1c0,0.5-0.4,0.8-1,0.8c-1.2,0-2.4,0-3.6,0
		C32.1,30.7,28.4,30.7,24.8,30.7L24.8,30.7z"/>
	<line class="st4" x1="56.7" y1="25.4" x2="-12.1" y2="25.4"/>
	<path class="st3" d="M22.3,23c-3.9,0-7.8,0-11.7,0c-0.7,0-1.1-0.2-1.2-0.7c-0.1-0.6,0.2-1.1,0.8-1.1c0.1,0,0.4,0,0.5,0
		c7.8,0,15.4,0,23.2,0c0.1,0,0.1,0,0.2,0c0.7,0,1.1,0.4,1.1,1s-0.4,1-1.1,1C30.2,23,26.2,23,22.3,23"/>
	<line class="st4" x1="61.7" y1="29.2" x2="-6.6" y2="29.2"/>
	<path class="st3" d="M27.5,26.9c-3.7,0-7.5,0-11.2,0c-0.2,0-0.5,0-0.7-0.1c-0.5-0.1-0.7-0.5-0.7-1s0.4-0.8,0.8-0.8
		c0.2,0,0.4,0,0.6,0c7.5,0,15,0,22.6,0c0.1,0,0.4,0,0.5,0c0.5,0.1,0.8,0.4,0.8,0.8c0,0.5-0.2,0.8-0.7,1c-0.2,0-0.5,0-0.7,0
		C35.1,26.9,31.2,26.9,27.5,26.9"/>
	<line class="st4" x1="43.4" y1="45.2" x2="-7.2" y2="45.2"/>
	<line class="st4" x1="-7.2" y1="18.7" x2="43.4" y2="18.7"/>
	<path class="st3" d="M20.5,39.2c0-1.3-1.1-2.4-2.4-2.4c-1.3,0-2.4,1.1-2.4,2.4s1.1,2.4,2.4,2.4C19.4,41.5,20.5,40.5,20.5,39.2
		 M21.9,39.3c0,2-1.7,3.7-3.8,3.7c-2.1,0-3.8-1.7-3.8-3.7c0-2,1.7-3.7,3.8-3.7C20.3,35.5,21.9,37.1,21.9,39.3"/>
	<line class="st4" x1="51.7" y1="45.2" x2="1" y2="45.2"/>
	<line class="st4" x1="1" y1="18.7" x2="51.7" y2="18.7"/>
	<path class="st3" d="M24,39.2c0,1.3,1.1,2.4,2.4,2.4c1.3,0,2.4-1.1,2.5-2.4c0-1.3-1.1-2.4-2.5-2.4C25,36.8,24,37.8,24,39.2
		 M26.4,42.9c-2.1,0-3.8-1.7-3.8-3.7c0-2,1.7-3.7,3.8-3.7c2.1,0,3.9,1.7,3.8,3.8C30.2,41.3,28.5,42.9,26.4,42.9"/>
	<polyline class="st4" points="57.1,45.1 9.4,45.1 9.4,18.9 57.1,18.9 	"/>
	<path class="st3" d="M32.2,38.7c0.4,0,0.6,0,0.8,0c0.1,0,0.2,0,0.4,0c0.5,0,0.8-0.4,0.8-0.8c0-0.5-0.2-0.8-0.7-1
		c-0.5,0-0.8,0-1.3,0C32.2,36.9,32.2,38.7,32.2,38.7z M32.2,40c0,0.7,0,1.3,0,1.9c0,0.5-0.2,0.7-0.6,0.7c-0.5,0-0.7-0.2-0.7-0.7
		c0-1.9,0-3.7,0-5.6c0-0.5,0.2-0.7,0.7-0.7c0.6,0,1.3,0,1.9,0c1.2,0.1,2,1.1,2,2.3c0,1.2-1,2.1-2.1,2.1C33,40.1,32.7,40,32.2,40"/>
	<polyline class="st4" points="-12.1,20.9 35.1,20.9 35.1,43.8 -12.1,43.8 	"/>
	<path class="st3" d="M11.6,39.5c0.6,0.2,1.1,0.5,1.6,0.6c0.5,0.2,0.7,0.6,0.5,1c-0.1,0.4-0.5,0.5-1,0.2c-0.8-0.4-1.7-0.7-2.5-1.1
		c-0.4-0.1-0.6-0.4-0.5-0.7c0-0.2,0.2-0.6,0.5-0.7c0.8-0.5,1.8-0.8,2.6-1.2c0.5-0.1,0.8,0,1,0.4c0.1,0.4,0,0.7-0.5,0.8
		C12.6,39,12.1,39.3,11.6,39.5"/>
	<polyline class="st4" points="61.7,43.8 14.5,43.8 14.5,20.8 61.7,20.8 	"/>
	<path class="st3" d="M38.1,39.5c-0.6-0.2-1.1-0.5-1.7-0.7c-0.5-0.1-0.5-0.5-0.4-0.8c0.1-0.4,0.5-0.6,0.8-0.4c1,0.4,1.9,0.8,2.9,1.2
		c0.6,0.2,0.6,1.1,0,1.3c-1,0.5-1.9,0.8-2.9,1.2c-0.4,0.1-0.6,0-0.8-0.4c-0.1-0.4,0-0.7,0.4-0.8C37,40,37.5,39.7,38.1,39.5"/>
	<polyline class="st4" points="61.7,25.4 15.1,25.4 15.1,4.4 	"/>
	<path class="st3" d="M38.4,23c-0.2,0-0.6,0-0.8,0c-0.6,0-1-0.4-1-1c0-0.5,0.4-1,0.8-1c0.6,0,1.2,0,1.8,0c0.6,0,1,0.5,1,1
		c0,0.5-0.4,0.8-1,1C39,23,38.6,23,38.4,23"/>
	<polyline class="st4" points="34.5,8.2 34.5,29.2 -12.1,29.2 	"/>
	<path class="st3" d="M11.3,24.9c0.2,0,0.6,0,0.8,0c0.5,0,1,0.4,1,0.8c0,0.5-0.2,1-0.8,1c-0.7,0-1.3,0-2,0c-0.5,0-0.8-0.5-0.8-1
		s0.4-0.8,1-1C10.7,24.9,11,24.9,11.3,24.9"/>
	<line class="st4" x1="45.8" y1="43" x2="3.9" y2="43"/>
	<line class="st4" x1="45.8" y1="43" x2="3.9" y2="43"/>
</g>
</svg>
