<?xml version="1.0" encoding="utf-8"?>
<!-- Generator: Adobe Illustrator 22.1.0, SVG Export Plug-In . SVG Version: 6.00 Build 0)  -->
<svg version="1.1" id="Layer_1" xmlns="http://www.w3.org/2000/svg" xmlns:xlink="http://www.w3.org/1999/xlink" x="0px" y="0px"
	 viewBox="0 0 50 50" style="enable-background:new 0 0 50 50;" xml:space="preserve">
<style type="text/css">
	.st0{fill:#1E1E1E;}
</style>
<g>
	<path class="st0" d="M45.6,32c-0.2,0.4-0.2,0.9-0.4,1.3c-0.8,1.5-2,2.2-3.7,2.2c-2.7,0-5.4,0-8,0c-0.3,0-0.4,0.1-0.4,0.4
		c0,0.7,0,1.3,0,2c0,0.3,0.1,0.3,0.4,0.3c1.1,0,2.1,0,3.2,0c1.2,0,1.8,0.6,1.8,1.8c0,0.6,0,1.1,0,1.7c-0.1,1-0.7,1.6-1.6,1.6
		c-2.3,0-4.7,0-7,0c0,0-0.1,0-0.2,0c0.9-1.5,0.5-3.2,0.5-4.8c0.1-2.8,0-5.7,0-8.5c0-0.5,0-0.5,0.5-0.5c3.2,0,6.4,0,9.6,0
		c0.3,0,0.6,0,0.9-0.1c0.6-0.3,1-0.8,1-1.6c0-4.2,0-8.4,0-12.7c0-0.5,0-1,0-1.5c0-1.1-0.6-1.7-1.7-1.7c-3.6,0-7.3,0-10.9,0
		c-3.8,0-7.6,0-11.3,0c-0.9,0-1.5,0.4-1.7,1.1c-0.1,0.2,0,0.4,0,0.6c0,0.8,0,1.7,0,2.5c0,0.2-0.1,0.3-0.3,0.3c-1,0-2,0-3,0
		c-0.2,0-0.3-0.1-0.3-0.3c0-1.2,0-2.4,0-3.6c0-2.2,1.8-4,4-4c8.2,0,16.4,0,24.6,0c1.9,0,3.6,1.4,4,3.3c0,0.1,0,0.1,0.1,0.2
		C45.6,18.8,45.6,25.4,45.6,32z M40.8,32.3c0-0.7-0.5-1.3-1.2-1.3c-0.7,0-1.3,0.6-1.3,1.3c0,0.7,0.5,1.3,1.2,1.3
		C40.2,33.6,40.8,33,40.8,32.3z"/>
	<path class="st0" d="M4.6,26.9c0.3-0.8,0.9-1.1,1.8-1.1c2.6,0,5.1,0,7.7,0c1.1,0,1.6,0.5,1.6,1.6c0,3.5,0,7,0,10.5
		c0,1.2,0,2.5,0,3.7c0,0.3,0,0.5-0.1,0.8c-0.2,0.6-0.7,1-1.4,1c-2.7,0-5.4,0-8.1,0c-0.8,0-1.2-0.4-1.5-1.1C4.6,37.2,4.6,32,4.6,26.9
		z M6.8,33.4c0,1.5,0,3,0,4.5c0,0.3,0.1,0.4,0.4,0.4c2,0,3.9,0,5.9,0c0.3,0,0.3-0.1,0.3-0.3c0-3,0-6,0-9c0-0.3-0.1-0.4-0.4-0.4
		c-1.9,0-3.9,0-5.8,0c-0.3,0-0.4,0.1-0.4,0.4C6.8,30.5,6.8,31.9,6.8,33.4z M10.1,42.6c0.6,0,1-0.5,1.1-1c0-0.6-0.5-1.1-1-1.1
		c-0.6,0-1.1,0.5-1.1,1C9.1,42.1,9.5,42.6,10.1,42.6z"/>
	<path class="st0" d="M17.5,43.5c0.1-0.5,0.2-0.9,0.2-1.4c0-0.3,0.2-0.1,0.3-0.1c0.7,0.3,1.4-0.1,1.6-0.8c0.2-0.5,0.1-1-0.3-1.3
		c-0.4-0.4-0.8-0.4-1.3-0.2c-0.1,0-0.1,0.1-0.3,0.1c0-0.8,0-1.5,0-2.3c0-0.2,0.2-0.1,0.3-0.1c1.7,0,3.4,0,5.2,0c0.4,0,0.8,0,1.2,0
		c0.3,0,0.4-0.1,0.4-0.4c0-1.5,0-3.1,0-4.6c0-3.2,0-6.4,0-9.6c0-0.6,0-0.6-0.6-0.6c-3.9,0-7.9,0-11.8,0c-0.3,0-0.5,0.1-0.4,0.4
		c0,0.4,0,0.7,0,1.1c0,0.2,0,0.3-0.3,0.3c-0.8,0-1.7,0-2.5,0C9,24,9,23.9,9,23.7c0-1.1,0-2.1,0-3.2c0.1-1.1,1.1-1.9,2.3-1.9
		c3.8,0,7.7,0,11.5,0c0.9,0,1.8,0,2.8,0c1.4,0,2.4,1,2.4,2.4c0,6.6,0,13.3,0,19.9c0,1.6-0.9,2.5-2.5,2.5c-2.5,0-5,0-7.5,0
		C17.8,43.5,17.7,43.5,17.5,43.5z"/>
</g>
</svg>
