<?xml version="1.0" encoding="utf-8"?>
<!-- Generator: Adobe Illustrator 22.1.0, SVG Export Plug-In . SVG Version: 6.00 Build 0)  -->
<svg version="1.1" id="Layer_1" xmlns="http://www.w3.org/2000/svg" xmlns:xlink="http://www.w3.org/1999/xlink" x="0px" y="0px"
	 viewBox="0 0 50 50" style="enable-background:new 0 0 50 50;" xml:space="preserve">
<style type="text/css">
	.st0{fill:#1E1E1E;}
</style>
<g>
	<path class="st0" d="M18.3,28.5c-0.2,0-0.2,0.2-0.2,0.2c0,0.5-0.2,0.9-0.3,1.4c0,0.2-0.2,0.5-0.2,0.6s0,0.2,0.2,0.2
		c0.2,0,0.3,0,0.6,0c0,0.2,0,0.2,0.2,0.2c0.3,0,0.3,0,0.3-0.3c-0.2-0.6-0.3-1.3-0.5-2.1C18.5,28.5,18.5,28.5,18.3,28.5z"/>
	<path class="st0" d="M10,20.2C10,20.3,10.1,20.3,10,20.2L10,20.2z"/>
	<path class="st0" d="M17.1,19.5c0.3,0,0.8,0,1.1,0c0.2-0.2,0.2-0.2,0.3-0.3c0.5-0.5,0.2-1.3-0.5-1.4c-0.3,0-0.6-0.2-0.9,0
		c-0.3,0-0.3,0.2-0.3,0.3c0,0.2,0,0.3,0,0.6c0,0.2,0,0.3,0,0.5C16.8,19.4,16.9,19.5,17.1,19.5z"/>
	<path class="st0" d="M25.6,28.3c-0.3-0.2-0.8-0.2-1.1,0c-0.2,0-0.3,0.2-0.3,0.3c0,0.3,0,0.6,0,0.9c0,0.6,0,0.6,0.6,0.6
		c0.2,0,0.3,0,0.5,0c0.6-0.2,0.8-0.3,0.8-0.6c0-0.3,0-0.5,0-0.8C26.1,28.5,25.9,28.3,25.6,28.3z"/>
	<path class="st0" d="M25,3.1C12.9,3.1,3.1,12.9,3.1,25S12.9,46.9,25,46.9S46.9,37.1,46.9,25S37.1,3.1,25,3.1z M14.7,16.8
		c0-0.2,0-0.3,0.3-0.3c0.9,0,1.9-0.2,2.8-0.2c0.3,0,0.8,0,1.1,0.2c1.1,0.2,1.6,0.8,1.6,1.9c0,0.3,0,0.5,0,0.8
		c-0.2,0.5-0.3,0.8-0.8,1.1c0-0.2-0.2-0.2-0.3,0c0.6,0.2,0.9,0.6,0.9,1.3c0.2,0.6,0.3,1.1,0.5,1.7c0,0.3,0,0.3-0.3,0.3
		c-0.5,0-0.9,0-1.4,0c-0.3,0-0.3,0-0.5-0.3c-0.2-0.6-0.3-1.1-0.5-1.7c-0.2-0.5-0.3-0.6-0.8-0.6c-0.8,0-0.8,0-0.8,0.8
		c0,0.6,0,1.1,0,1.7c0,0.3,0,0.3-0.3,0.3c-0.5,0-0.8,0-1.3,0c-0.3,0-0.3,0-0.3-0.3C14.7,21.3,14.7,19.1,14.7,16.8z M11.7,25
		c0,0.2-0.2,0.3-0.3,0.3s-0.3,0-0.5,0c-0.5,0-1.1,0-1.4-0.5C9.2,24.6,9,24.3,9,23.9c0-0.8,0-1.6,0-2.4c0-0.3,0-0.6-0.3-0.6
		c-0.2,0-0.2-0.2-0.2-0.3c0-0.3,0-0.5,0-0.8c0-0.2,0.2-0.3,0.3-0.3C9,19.5,9,19.4,9,19.2c0-0.3,0-0.6,0-1.1c0-0.3,0-0.8,0-1.1
		c0-0.8,0.6-1.6,1.4-1.6c0.3,0,0.5,0,0.8,0c0.2,0,0.3,0.2,0.3,0.3c0,0.2,0,0.5,0,0.6c0,0.2-0.2,0.2-0.3,0.2c-0.3,0-0.5,0.2-0.5,0.5
		c0,0.5,0,1.1,0,1.6c0.2,0.9,0,1.3-0.8,1.6c0.8,0.3,0.9,0.8,0.9,1.4c0,0.6,0,1.3,0,2.1c0,0.5,0.2,0.5,0.5,0.5c0.2,0,0.3,0.2,0.3,0.3
		C11.7,24.6,11.7,24.9,11.7,25z M21.3,34.1c-0.2,0-0.3,0-0.6,0c-0.2,0-0.5,0-0.6,0c-0.3,0-0.3,0-0.5-0.3c-0.2-0.3-0.2-0.8-0.3-1.1
		c0-0.2-0.2-0.3-0.3-0.3c-0.5,0-1.1,0-1.6,0c-0.2,0-0.3,0.2-0.3,0.3c-0.2,0.3-0.2,0.8-0.3,1.1c0,0.3-0.2,0.3-0.5,0.3
		c-0.5,0-0.9,0-1.3,0c-0.3,0-0.3-0.2-0.3-0.3c0.6-2.1,1.3-4.3,1.9-6.3c0.2-0.5,0.3-0.6,0.9-0.6c0.5,0,1.1,0,1.6,0
		c0.5,0,0.6,0.2,0.8,0.6c0.3,1.1,0.6,2.2,0.9,3.3c0.3,0.9,0.6,1.9,0.8,2.8C21.8,34.1,21.8,34.1,21.3,34.1z M21.8,22.1
		c0-0.3,0-0.6,0-0.9c0-0.3,0-0.6,0-0.9c0-0.6,0-1.4,0-2.1c0-1.1,0.6-1.6,1.6-1.6c0.8,0,1.4,0,2.2,0c0.5,0,0.8,0,1.3,0
		c0.2-0.2,0.2,0,0.2,0.2c0,0.3,0,0.5,0,0.8c0,0.3-0.2,0.5-0.5,0.5c-0.8,0-1.6,0-2.2,0c-0.3,0-0.5,0-0.5,0.5c0,0.2,0,0.3,0,0.6
		c0,0.2,0,0.3,0.3,0.3c0.3,0,0.6,0,0.9,0c0.5,0,0.9,0,1.4,0c0.3,0,0.3,0.2,0.3,0.3c0,0.2,0,0.3,0,0.5c0,0.5-0.2,0.5-0.6,0.5
		c-0.6,0-1.3,0-1.7,0h-0.2c-0.2,0-0.3,0.2-0.3,0.3c0,0.3,0,0.6,0,0.9c0,0.2,0.2,0.3,0.5,0.3c0.8,0,1.4,0,2.2,0h0.2
		c0.2,0,0.3,0.2,0.3,0.3c0,0.3,0,0.5,0,0.8c0,0.2-0.2,0.3-0.3,0.3c-0.3,0-0.8,0.2-1.3,0.2c-0.8,0-1.4,0-2.2,0
		C22.3,23.8,21.8,23.2,21.8,22.1z M28,30.5c-0.2,0.5-0.5,0.9-1.1,0.9c-0.8,0.2-1.4,0.2-2.2,0.2c-0.3,0-0.3,0-0.3,0.3
		c0,0.6,0,1.3,0,1.9c0,0.3-0.2,0.5-0.5,0.5c-0.5,0-0.8,0-1.3,0c-0.3,0-0.3-0.2-0.3-0.3c0-1.1,0-2.2,0-3.3s0-2.2,0-3.3
		c0-0.3,0-0.3,0.3-0.5c0.9-0.2,1.9-0.2,2.8-0.2c0.3,0,0.8,0,1.1,0.2c0.8,0.2,1.3,0.6,1.4,1.4C28.1,29.1,28.3,29.7,28,30.5z M31,33.8
		c0,0.3,0,0.5-0.5,0.5c-0.3,0-0.8,0-1.1,0c-0.3,0-0.5,0-0.5-0.3c0-2.2,0-4.4,0-6.5c0-0.3,0-0.3,0.3-0.3c0.5,0,0.8,0,1.3,0
		c0.3,0,0.3,0.2,0.3,0.3c0.2,0.8,0.2,1.9,0.2,3C31,31.6,31,32.7,31,33.8z M32.8,23c-0.2,0.3-0.6,0.5-0.9,0.6
		c-0.8,0.2-1.7,0.2-2.5,0.2c-0.5,0-0.9-0.2-1.4-0.2c-0.3,0-0.3-0.2-0.3-0.5c0-0.3,0-0.5,0.2-0.8c0-0.2,0.2-0.3,0.3-0.3
		c0.2,0,0.3,0,0.6,0c0.5,0,0.9,0,1.4,0c0.2,0,0.5,0,0.6,0c0.2,0,0.3-0.2,0.3-0.3s0-0.3-0.2-0.5c-0.2-0.2-0.3-0.2-0.3-0.2
		c-0.5-0.2-0.9-0.5-1.4-0.6c-0.9-0.3-1.6-1.1-1.6-2.1c0-0.6,0.2-1.1,0.5-1.6c0.3-0.5,0.8-0.5,1.3-0.5c1.1-0.2,2.2-0.2,3.3,0.2
		c0.3,0,0.3,0.2,0.3,0.5c0,0.2,0,0.5-0.2,0.6c0,0.2-0.2,0.3-0.3,0.3c-0.5,0-0.8,0-1.3,0c-0.5,0-0.8,0-1.3,0c-0.2,0-0.3,0-0.3,0.3
		c0,0.2,0,0.3,0.2,0.5c0,0,0.2,0.2,0.3,0.2c0.5,0.2,1.1,0.5,1.6,0.6c0.8,0.3,1.3,0.8,1.4,1.6C33.3,21.7,33.2,22.4,32.8,23z
		 M37.3,31.1c0,0.2,0,0.2-0.2,0.2c-0.3,0.2-0.3,0.3-0.3,0.6c0,0.8,0,1.4,0,2.2c0,0.3,0,0.5-0.2,0.6c-0.2,0.3-0.3,0.6-0.6,0.8
		c-0.5,0.3-0.9,0.3-1.6,0.3c-0.2,0-0.3-0.2-0.3-0.3c-0.2-0.3,0-0.5,0-0.8c0-0.2,0.2-0.2,0.3-0.2c0.5,0,0.5-0.2,0.5-0.5
		c0-0.6,0-1.3,0-1.9c0-0.5,0-0.8,0.3-1.1c0.2-0.2,0.3-0.3,0.6-0.5c-0.8-0.3-0.9-0.8-0.9-1.4c0-0.5,0-0.9,0-1.6
		c0-0.3-0.2-0.5-0.5-0.5c-0.3,0-0.3-0.2-0.3-0.3c0-0.2,0-0.5,0-0.6c0-0.2,0-0.3,0.2-0.3c0.5,0,0.9,0,1.4,0.2
		c0.6,0.3,0.9,0.8,0.9,1.4c0,0.6,0,1.3,0,1.9c0,0.2,0,0.5,0.3,0.5c0.2,0.2,0.2,0.3,0.3,0.3C37.3,30.5,37.3,30.8,37.3,31.1z
		 M39.8,17.6c0,0.3-0.2,0.3-0.3,0.3c-0.5,0-0.9,0-1.4,0c-0.3,0-0.5,0.2-0.5,0.5c0,1.6,0,3.2,0,4.7c0,0.5-0.2,0.6-0.6,0.5
		c-0.3,0-0.6,0-0.9,0c-0.5,0-0.5,0-0.5-0.5c0-1.3,0-2.5,0-3.8c0-0.3,0-0.6,0-0.9c0-0.5-0.2-0.5-0.5-0.5c-0.5,0-0.8,0-1.3,0
		c-0.2,0-0.3-0.2-0.3-0.3c0-0.3,0-0.6,0-0.9c0-0.2,0.2-0.3,0.5-0.3c0.9,0,1.9,0,2.7,0c0.9,0,1.9,0,2.7,0c0.5,0,0.5,0.2,0.5,0.3
		C39.8,17,39.8,17.3,39.8,17.6z M41.7,22.8C41.7,22.8,41.7,22.8,41.7,22.8c0,0.5-0.2,0.7-0.5,0.9c-0.6,0.2-1.1,0-1.3-0.3
		c-0.2-0.3-0.2-0.8,0-1.1c0.2-0.2,0.3-0.3,0.6-0.3c0.3,0,0.5,0,0.8,0.2c0.2,0,0.3,0.2,0.3,0.3C41.7,22.5,41.7,22.6,41.7,22.8z
		 M41.4,20.6c-0.3,0-0.5,0-0.8,0c-0.3,0-0.5-0.2-0.6-0.6c0-0.2,0-0.2,0-0.3c0-0.8,0.2-0.9,0.9-0.9c0.2,0,0.3,0,0.5,0
		s0.3,0.2,0.3,0.3c0,0.5,0,0.8,0,1.3C41.7,20.5,41.5,20.6,41.4,20.6z"/>
</g>
</svg>
