<?xml version="1.0" encoding="utf-8"?>
<!-- Generator: Adobe Illustrator 22.1.0, SVG Export Plug-In . SVG Version: 6.00 Build 0)  -->
<svg version="1.1" id="Capa_1" xmlns="http://www.w3.org/2000/svg" xmlns:xlink="http://www.w3.org/1999/xlink" x="0px" y="0px"
	 viewBox="0 0 128 180" style="enable-background:new 0 0 128 180;" xml:space="preserve">
<style type="text/css">
	.st0{fill:#1E1E1E;}
</style>
<g>
	<path class="st0" d="M18.5,119.8c0.2-0.1,0.5-0.1,0.7-0.2c-3.1-9.9-1.8-20.1-2-30.3c-0.2,0-0.5-0.1-0.7-0.1
		c-0.3,0.3-0.8,0.5-0.9,0.8c-0.9,2.6-2.3,5.3-2.5,8c-0.4,6.1,1.1,12.1,3.4,17.8C17,117.2,17.8,118.5,18.5,119.8 M109.1,83.8V67.5
		c-4.4-0.7-8.9-1.4-10.3-6.2c-2.1,0.5-3.9,0.9-6.4,1.5c2.9-4.7-0.6-8.1-0.5-12.2c-1.4,2.1-1,5.3-4.2,5.2c-2.1,0-4.6,1.8-6.3-1.1
		c-1,2.7-1.8,5.2-4.8,7c0.2-1.4,0.3-2.2,0.4-3c0.8-4.4,0.9-8.7-1.6-12.6c-0.9-1.5-1.9-2.9-4.2-2.8c-3.3,0.1-6.6-0.1-9.9-0.1
		c-0.7,0-1.5-0.1-2,0.3c-2.9,2.4-6,4.7-8.5,7.5c-2.4,2.8-2.4,3-6,1.1c-0.9,2.3-1.7,4.5-2.6,6.7c-2-0.9-4-0.1-5.3,1.3
		c-2.3,2.5-4.3,5.4-8.3,5.7c-0.6,0.1-1.3,0.6-1.7,1C23,72.3,22.8,78.6,22.8,85c3.3-0.6,6.4-1.1,9.5-1.7c0.4-0.1,0.8-0.5,0.9-0.8
		c0.8-2.5,3-3.4,5.3-3.6c4.3-0.4,8.7-0.2,13.1-0.5c3.7-0.3,6.5,0.7,8,3.7l-1.3,0.1c-0.1-0.1-0.2-0.3-0.3-0.4
		c-0.6-0.5-1.8-0.4-2.7-0.6c-1.8-0.3-3.6-0.9-5.3-0.8c-4.3,0.1-8.5,0.5-12.8,1c-0.7,0.1-1.8,1.3-1.9,2.1c-0.5,2.8,1,5.3,3.9,6.4
		c1.4,0.5,2.9,1,4.4,1c5.7,0.1,11.8,1.4,16.4-3.5c-1,3.6-2.3,4.8-6,5.2c-2.6,0.3-5.3,0.6-7.8,0.5c-5.8-0.3-11.6-0.8-13-8.2
		c-3,0.7-5.8,1.4-8.7,1.8c-1.8,0.3-2.1,1.3-2,2.7c0.2,4.8,0.1,9.6,0.5,14.4c0.3,3.1,1.2,6.1,2,9.1c0.5,2,1.5,3.9,1.8,5.9
		c2.2,8.5,6.6,20.2,13.9,13.9c0,0,4.7-5.5,7.9-8.1s6.7-4.9,10.1-7.2c1.1-0.8,2.4-1.5,3.5,0c1,1.5,1.6,3.1-0.3,4.4
		c-1,0.7-2.1,1.4-3.2,1.9c-8.3,3.4-13.3,9.4-15,17.9c-0.7,3.9,0.1,7.5,3.5,10.1c1.9,1.5,3.8,3.1,5.9,4.2c2.1,1,4.5,1.3,6.8,1.7
		c0.4,0.1,1.3-0.4,1.5-0.8c1.4-4.4,2.9-8.7,1.4-13.4c-0.5-1.4,0.1-2.3,1.4-2.7c1.2-0.4,2.5-0.6,3.7-0.5c2.4,0.1,3.8,1.6,3.8,3.9
		c0,2-0.4,4.1,0.1,5.9c0.6,2,1.8,4.5,3.5,5.5c2.6,1.5,7.2-0.3,9.1-2.8c1.1-1.6,2.4-3.1,3.1-4.9c0.8-2,2.1-3.9,1.2-6.2
		c-0.8-2.1-1.8-4.2-2.3-6.4c-0.7-2.9-1.7-5.4-4.6-6.8c-3.6-1.8-7.1-3.7-10.7-5.4c-1.9-0.9-3.4-3.1-2.9-4.7c0.5-1.7,1.8-2.1,4.6-1.4
		c6,1.6,10.1,5.8,14.6,9.6c0.7,0.6,0.9,1.8,1,2.7c1.2,3,6.3,3.9,6.3,3.9s2.5,0.4,4.5-0.1c1.8-0.4,3.2-1.6,3.3-1.6
		c1.7-2.9,1.4-3.7,1.4-3.7c1-1.2,1.6-2.8,1.9-4.3c1.2-6.1,2.5-12.1,3-18.2c0.5-6.6,0.1-13.2,0.1-19.9c-2.3-0.3-4.6-0.7-6.9-0.8
		c-0.7,0-1.9,0.7-2,1.2c-0.9,3.6-3.6,5.2-7.1,6c-5.1,1.2-10.1,0.9-15.2,0c-2.4-0.4-3.9-2.2-4.2-4.3c1.1,0.7,2.1,1.8,3.4,2.1
		c5.4,1.2,10.9,1.5,16.3,0.1c3.4-0.9,5.4-3.5,4.8-6.7c-0.2-0.9-1.7-1.6-2.7-2.2c-0.3-0.2-1,0.3-1.4,0.2c-4.8-1.6-9.7-0.8-14.6-0.5
		c-0.9,0.1-2-0.2-2.7,0.1c-1.1,0.5-2.1,1.4-3.1,2.1c0.7-2.8,2.5-4.4,5.4-4.4c4.7-0.1,9.4-0.1,14.1,0.1c3.3,0.2,6.5,0.9,7.5,4.5
		C103.5,83.2,106.2,83.5,109.1,83.8 M118.5,97.9c0.8-4.9-1.3-9.3-3.3-13.1c-0.8,9.3-1.7,18.8-2.5,28.3c0.1,0.1,0.2,0.3,0.4,0.4
		c0.8-1,1.9-1.9,2.3-3C116.6,106.3,117.9,102.1,118.5,97.9 M126.2,72.5c1.9,6.2,2.4,12.7,1.1,19c-1.1,5-3.4,9.8-5.3,14.6
		c-1.3,3.3-3,6.4-4.3,9.6c-0.4,1-0.6,2.2-0.6,3.3c-0.1,3.1,0,6.3,0,9.4c0,2-0.6,3.6-2.3,5c-0.8,0.6-0.7,2.5-0.7,3.8
		c0,1.5,0.9,3.3,0.3,4.4c-0.6,0.9-2.7,0.9-4.1,1.5c-2.6,1.2-4.2,3.4-4.8,5.9c-0.6,2.7-2.2,4.7-4.1,6.5c-5.2,4.9-10.8,9.5-15.7,14.7
		c-3.1,3.3-6.2,6.5-10.5,8.3c-4.6,2-9.2,2.3-13.6-0.5c-1.9-1.2-3.6-2.7-5.5-4c-1.5-1-3.1-1.9-4.6-2.8c-4.9-3.1-9.8-6.1-14.7-9.3
		c-2-1.3-4-2.9-5.6-4.6c-1.7-1.8-3-4-4.4-6l0.1,0.1c-1-3.4-2-6.8-3.1-10.6c-1.6,2.4-2.8,4.3-4,6.1c-0.3,0-0.6-0.1-0.8-0.1
		c-0.8-4.5,1.6-9.3-0.8-13.6c-1.2,1.2-2.4,2.5-3.8,4c0.7-3.2,1.3-5.9,1.9-8.6c0.7-2.9-0.9-5-3-6.7c-2.6-2.1-5.4-4.1-8-6.3
		c-0.6-0.5-1-1.6-1.1-2.5c-0.5-3.7-1.3-7.4,0.2-11.1c0.2-0.4,0.2-0.9,0.1-1.4C3.7,95.1,3,89.6,2,84.1c-0.7-2.5-2-4.8-2-7.2
		c0.1-4.2,0.7-8.5,1.3-12.7c0.8-5.6,1.9-11.1,2.8-16.6c0.4-2.7,0.4-5.4,0.9-8.1c0.3-1.6,1-3.3,2.1-4.6C9,32.6,11.5,31,11,27.4
		c-0.2-1.7,1.1-3.7,2.2-5.3c0.6-0.9,2.1-1.4,3.3-1.9c0.8-0.3,1.8-0.3,3.1-0.5c-0.8-1.4-1.4-2.4-2.2-3.8c0.7-0.1,1.4-0.1,2-0.4
		c2-0.8,4.1-1.5,5.8-2.7c1.4-1,2.7-1.8,4.5-1.5c2,0.4,3.4-0.6,4.8-1.8c1.3-1.2,3.1-1.8,4.7-2.7c0.6-0.3,1.3-0.4,2-0.6
		c2.3-0.8,4.7-1.8,7-2.6c1.7-0.6,3.4-1.1,5.2-1.4C54.5,2,55.8,2,56.8,2.4c2.4,1,4.5,0.7,6.3-1.1c1.9-1.9,4-2.2,6.5-1.1
		c2.9,1.4,5.8,2.7,8.8,3.9c2.4,0.9,4.9,1.5,7.4,2.2c2.6,0.8,5.3,1.5,7.9,2.4c3.1,1.1,5.4,3.2,7.7,5.6c5.5,6.1,11.3,11.9,17.3,17.6
		c1.7,1.7,4.2,2.7,6.4,3.9c2.1,1.1,2.5,2.6,2.2,4.8c-0.5,2.6-0.6,5.3-0.9,7.9c-0.3,2.5-0.6,5.1-1.1,7.6c-0.5,2.2-0.6,4.2,1.4,5.8
		c1.5,1.2,1.3,2.8,0.3,4.1C125.4,68.2,125.5,70.1,126.2,72.5"/>
	<path class="st0" d="M102.4,76.4c0.3,0.5,0.3,1.6,0,1.9c-0.5,0.4-1.6,0.7-2.1,0.4c-1.9-0.9-3.8-1.8-5.4-3.1
		c-1.6-1.3-3.1-2.6-5.4-2.3c-4.3,0.4-8.7,0.8-13,1.3c-0.5,0-1.3,0.4-1.5,0.8c-1.1,2.1-2.1,4.2-3,6.3l-0.6-0.3c0.3-0.5,0.5-1.2,0.7-2
		c0.6-2.6,2-5,3-7.5c0.6-1.4,1.4-2.4,3.1-2.3c6.1,0.1,12.2,0.1,18.3,0.2c0.4,0,0.8,0.2,1,0.5C99.2,72.2,100.9,74.3,102.4,76.4"/>
	<path class="st0" d="M72.3,83.2c3.7,2.2-1.2,2.1-1.1,2.8c-0.8-0.3-1.7-0.8-2.5-0.8c-2.7,0-5.4,0.3-8.1,0.4c-0.5,0-1.2-0.7-1.5-1.2
		c-0.4-0.7-0.4-1.6-0.7-2.2l1.3-0.1c0.2,0.4,0.4,0.8,0.5,1.2c0,0.1,0.3,0.1,0.8,0.2c-0.2-2.3-0.6-4.4-1.5-6.3l0.3-0.1
		c1,2.1,1.9,4.2,3,6.4c0.3,0,1,0,1.8-0.1s1.6-0.3,2.4-0.2c2.4,0.5,3.7-0.2,4.5-1.7l0.6,0.3c-0.2,0.4-0.4,0.8-0.5,1.1
		C71.8,82.9,72.1,83.1,72.3,83.2"/>
	<path class="st0" d="M59.8,77l-0.3,0.1c-0.5-1.2-1.2-2.3-2.1-3.3c-0.3-0.3-1-0.3-1.5-0.4c-2.6-0.3-5.2-0.5-7.8-0.8
		c-2.8-0.3-5.5-0.5-8.1,1c-3.2,1.8-6.5,3.4-10.1,5.2c0.1-1,0-1.6,0.2-2.1c1.3-4.4,7.5-8.7,12.3-8.7c3.9,0,7.8,0,11.7,0
		c3,0,4.3,1.4,4,4.5c0,0.3,0,0.6,0.1,0.8C58.7,74.5,59.2,75.7,59.8,77"/>
</g>
</svg>
